<svg width="226" height="76" viewBox="0 0 226 76" fill="none" xmlns="http://www.w3.org/2000/svg">
<path d="M1.28 75.264V10.24L1.28 0H79.872V12.288H18.176V30.976H66.048V43.648H18.176V75.264H1.28ZM69.585 75.264V10.24L68.305 0H127.697C134.609 0 139.9 0.853333 143.569 2.56C147.324 4.26666 149.926 6.82666 151.377 10.24C152.828 13.568 153.553 17.7493 153.553 22.784V52.352C153.553 57.472 152.828 61.7387 151.377 65.152C150.012 68.48 147.452 70.9973 143.697 72.704C140.028 74.4107 134.694 75.264 127.697 75.264H69.585ZM86.481 62.976H126.673C133.244 62.976 136.572 59.9467 136.657 53.888V21.248C136.657 18.7733 135.932 16.6827 134.481 14.976C133.03 13.184 130.428 12.288 126.673 12.288H86.481V62.976ZM161.446 75.264C155.643 75.264 147.775 75.264 147.775 75.264H127.697L147.775 62.592C149.738 62.9333 164 63 164 63C164 63 182.865 62.976 196.518 62.976H198.95C202.619 62.976 205.222 62.336 206.758 61.056C208.294 59.6907 209.062 57.4293 209.062 54.272V51.712C209.062 48.7253 208.422 46.592 207.142 45.312C205.947 44.032 203.217 43.392 198.95 43.392H169.254C160.635 43.392 154.363 41.8133 150.438 38.656C146.513 35.4133 144.55 30.1653 144.55 22.912V20.864C144.55 17.1093 145.233 13.6533 146.598 10.496C148.049 7.33866 150.481 4.82133 153.894 2.944C157.307 0.981333 162.001 0 167.974 0H202.79H217H220.5V12.288H204.5C204.5 12.288 186.193 12.288 172.966 12.288H171.293C167.368 12.288 164.987 12.9707 163.622 14.592C162.257 16.128 161.531 18.0907 161.446 20.48V22.656C161.446 25.472 162.214 27.6053 163.75 29.056C165.371 30.4213 168.017 31.104 171.686 31.104H200.102C205.563 31.104 210.214 31.6587 214.054 32.768C217.894 33.8773 220.838 35.9253 222.886 38.912C224.934 41.8133 225.958 46.1227 225.958 51.84V53.888C225.958 60.288 224.294 65.4507 220.966 69.376C217.723 73.3013 212.049 75.264 203.942 75.264C203.942 75.264 167.249 75.264 161.446 75.264Z" fill="white"/>
</svg>
